# xmcd
#
# Track frame offsets:
#	150
#	10458
#	21955
#	33073
#	45331
#	56678
#	66573
#	77022
#	89207
#	102545
#	114859
#	128609
#	140319
#	150469
#	160792
#	170410
#	180667
#	192764
#	206447
#	215540
#	228135
#
# Disc length: 3213 seconds
#
# Revision: 0
# Processed by: cddbd v1.5.2PL0 Copyright (c) Steve Scherf et al.
# Submitted via: EasyCDDAExtractor 16.0.1.1
#
DISCID=120c8b15
DTITLE=The Nashville String Band - Identified! and The Bandit
DYEAR=1972
DGENRE=Country
TTITLE0=Colonel Bogey
TTITLE1=White Silver Sands
TTITLE2=Red Wing
TTITLE3=The Three Bells
TTITLE4=Oklahoma Hills
TTITLE5=Strollin'
TTITLE6=Sweet Dreams
TTITLE7=Rocky Top
TTITLE8=Release Me (And Let Me Love Again)
TTITLE9=Green  Green Grass Of Home
TTITLE10=The Bandit
TTITLE11=Estrellita
TTITLE12=Cielito Lindo
TTITLE13=Gay Ranchero
TTITLE14=Marcheta
TTITLE15=The Great El Tigre (The Tiger)
TTITLE16=Spanish Eyes
TTITLE17=You Belong To My Heart
TTITLE18=Cumbanchero
TTITLE19=Bandera
TTITLE20=Vaya Con Dios
EXTD=
EXTT0=
EXTT1=
EXTT2=
EXTT3=
EXTT4=
EXTT5=
EXTT6=
EXTT7=
EXTT8=
EXTT9=
EXTT10=
EXTT11=
EXTT12=
EXTT13=
EXTT14=
EXTT15=
EXTT16=
EXTT17=
EXTT18=
EXTT19=
EXTT20=
PLAYORDER=
